<?xml version="1.0" encoding="utf-8"?>
<!-- Generator: Adobe Illustrator 16.0.3, SVG Export Plug-In . SVG Version: 6.00 Build 0)  -->
<!DOCTYPE svg PUBLIC "-//W3C//DTD SVG 1.1//EN" "http://www.w3.org/Graphics/SVG/1.1/DTD/svg11.dtd">
<svg version="1.1" id="Layer_1" xmlns="http://www.w3.org/2000/svg" xmlns:xlink="http://www.w3.org/1999/xlink" x="0px" y="0px"
	 width="1440px" height="1440px" viewBox="0 0 1440 1440" enable-background="new 0 0 1440 1440" xml:space="preserve">
<path fill="#583E87" stroke="#000000" stroke-miterlimit="10" d="M2171.998,905.672c-357.879,0-647.998,290.119-647.998,647.998
	c0,357.883,290.119,648.002,647.998,648.002c357.883,0,648.002-290.119,648.002-648.002
	C2820,1195.791,2529.881,905.672,2171.998,905.672z M2484.484,1311.244c0,0-79.832-19.354-106.442,14.516
	c-26.611,33.869-16.936,82.252-16.936,82.252h123.378v127.734v10.16h-116.12v396.747h-179.019v-396.747h-111.285v-133.056v-4.839
	h110.569c0,0-26.32-153.168,64.22-208.353c95.254-58.062,231.635-26.31,231.635-26.31V1311.244z"/>
<path fill="#583E87" stroke="#000000" stroke-miterlimit="10" d="M2539.998-830.822c-357.879,0-647.998,290.119-647.998,647.998
	c0,357.881,290.119,648.002,647.998,648.002c357.883,0,648.002-290.121,648.002-648.002
	C3188-540.703,2897.881-830.822,2539.998-830.822z M3024.949-344.926c-20.345,15.437-41.396,30.873-41.396,30.873
	s4.912,220.313-122.783,352.218c-127.695,131.903-347.574,202.067-495.345,151.548c-147.774-50.518-147.774-63.849-147.774-63.849
	s81.818,16.138,163.208-17.538C2462.248,74.647,2475.58,55,2475.58,55s-56.133,5.613-106.646-42.096
	c-50.52-47.709-54.73-79.985-54.73-79.985s28.769,4.911,46.311,2.807c17.538-2.104,31.571-7.017,31.571-7.017
	s-63.146-4.912-106.649-66.654c-43.499-61.744-33.676-108.05-33.676-108.05s20.348,14.735,41.395,20.348
	c21.049,5.613,37.89,4.21,37.89,4.21s-76.478-42.801-78.583-134.712c-2.104-91.913,24.555-98.93,24.555-98.93
	s90.515,108.75,198.563,146.639c108.049,37.887,160.67,35.08,160.67,35.08s-25.257-144.531,108.754-202.067
	c134.01-57.533,190.838,42.802,190.838,42.802s42.801-7.719,64.553-19.646c21.751-11.929,46.306-23.155,46.306-23.155
	s-8.42,35.083-22.453,50.52c-14.029,15.435-52.621,45.603-52.621,45.603s32.979-2.105,58.234-11.227
	c25.26-9.122,40.154-16.134,40.154-16.134S3045.297-360.359,3024.949-344.926z"/>
<g>
	<path fill="#583E87" stroke="#000000" stroke-miterlimit="10" d="M383.087,405.218c-193.212,75.769-18.943,488.711,151.538,344.75
		S508.084,356.197,383.087,405.218z"/>
	<path fill="#583E87" stroke="#000000" stroke-miterlimit="10" d="M435.849,1302.502c79.209,7.647,161.869-12.573,204.853-63.823
		c98.5-117.443-117.441-253.828-117.441-253.828s-280.346-15.152-284.134,155.326c-0.111,5.011,0.067,9.905,0.48,14.699
		C294.737,1215.74,361.281,1266.058,435.849,1302.502z"/>
	<path fill="#583E87" stroke="#000000" stroke-miterlimit="10" d="M719.999,71.999C362.119,71.999,72,362.119,72,720.002
		c0,121.908,33.69,235.939,92.231,333.335c14.028-17.654,31.531-33.269,52.164-45.757c123.978-75.038,236.637-62.986,265.547-58.191
		c-11.478-3.601-33.292-16.751-40.149-64.872c-9.457-66.356,24.64-89.09,24.64-89.09s-219.729,68.192-280.345-151.538
		C125.472,424.159,379.299,333.237,545.99,337.025c166.692,3.788,246.25-0.113,246.25-0.113l-83.346,64.518h-98.5
		c0,0,102.288,37.883,109.865,174.268c7.578,136.384-109.865,197-109.865,197s-41.673,18.941-41.673,49.251
		c0,30.307-7.577-22.733,0,30.307c7.577,53.039,204.577,87.133,189.421,238.671c-10.861,108.63-58.723,217.246-191.003,258.893
		c49.021,11.854,100.197,18.183,152.859,18.183c357.882,0,648.001-290.12,648.001-647.999
		C1368,362.119,1077.881,71.999,719.999,71.999z M1127.518,876.88h-123.123v123.124h-87.136V876.88H794.133v-87.134h123.126V666.619
		h87.136v123.127h123.123V876.88z"/>
</g>
<circle stroke="#000000" stroke-miterlimit="10" cx="-1295.116" cy="550.718" r="178.572"/>
<circle stroke="#000000" stroke-miterlimit="10" cx="-800.884" cy="550.718" r="178.572"/>
<circle stroke="#000000" stroke-miterlimit="10" cx="-1295.116" cy="994.147" r="178.572"/>
<g>
	<rect x="-1321.002" y="510.578" fill="#FFFFFF" width="112" height="38"/>
	<path fill="#FFFFFF" d="M-1209.002,445.911v38c0,0-22-5.333-29.334,4c-7.332,9.334-4.666,22.667-4.666,22.667h34v35.2h-32v112.133
		h-49.334V548.578h-30.666v-36.667l30.469-1.333c0,0-7.252-42.209,17.697-57.417
		C-1246.586,437.161-1209.002,445.911-1209.002,445.911z"/>
</g>
<path fill="#FFFFFF" d="M-873.355,475.691c0,0,24.943,29.969,54.719,40.41c29.775,10.44,44.276,9.667,44.276,9.667
	s-6.96-39.829,29.97-55.685c36.93-15.854,52.59,11.795,52.59,11.795s11.795-2.127,17.789-5.414s12.761-6.381,12.761-6.381
	s-2.32,9.668-6.188,13.922c-3.866,4.254-14.501,12.567-14.501,12.567s9.088-0.58,16.048-3.094
	c6.961-2.514,11.065-4.446,11.065-4.446s-6.812,12.761-12.419,17.014c-5.606,4.254-11.407,8.508-11.407,8.508
	s1.354,60.712-33.836,97.062s-95.782,55.685-136.504,41.763c-40.723-13.921-40.723-17.595-40.723-17.595s22.547,4.447,44.976-4.833
	c22.429-9.281,26.103-14.695,26.103-14.695s-15.469,1.547-29.389-11.601c-13.922-13.147-15.082-22.042-15.082-22.042
	s7.928,1.354,12.762,0.773c4.833-0.58,8.7-1.934,8.7-1.934s-17.401-1.354-29.39-18.368c-11.987-17.015-9.28-29.775-9.28-29.775
	s5.607,4.061,11.407,5.607c5.801,1.547,10.441,1.16,10.441,1.16s-21.075-11.795-21.655-37.123
	C-880.702,477.625-873.355,475.691-873.355,475.691z"/>
<g>
	<path fill="#FFFFFF" d="M-1325.32,906.357c0,0,28.188,10.439,30.275,48.023c2.089,37.584-30.275,54.288-30.275,54.288
		s-11.484,5.22-11.484,13.572c0,8.352-2.088-6.265,0,8.352s56.377,24.012,52.2,65.771c-4.176,41.761-28.188,83.521-107.532,75.168
		c-79.344-8.352-81.432-74.123-41.76-98.136c39.672-24.012,75.168-15.66,75.168-15.66s-10.447,0.033-13.054-18.253
		s6.79-24.551,6.79-24.551s-60.552,18.792-77.256-41.76s53.244-85.607,99.18-84.563s67.86-0.031,67.86-0.031l-22.968,17.779
		H-1325.32z"/>
	<path d="M-1387.96,907.401c34.446-13.509,88.739,55.332,41.76,95.004S-1441.204,928.281-1387.96,907.401z"/>
	<path d="M-1349.332,1067.133c0,0-77.256-4.176-78.3,42.804c-1.044,46.98,83.52,59.508,110.663,27.145
		C-1289.824,1104.717-1349.332,1067.133-1349.332,1067.133z"/>
	<rect x="-1240.756" y="979.437" fill="#FFFFFF" width="24.012" height="91.872"/>
	<rect x="-1274.687" y="1013.367" fill="#FFFFFF" width="91.872" height="24.012"/>
</g>
</svg>
