<?xml version="1.0" encoding="utf-8"?>
<!-- Generator: Adobe Illustrator 16.0.3, SVG Export Plug-In . SVG Version: 6.00 Build 0)  -->
<!DOCTYPE svg PUBLIC "-//W3C//DTD SVG 1.1//EN" "http://www.w3.org/Graphics/SVG/1.1/DTD/svg11.dtd">
<svg version="1.1" id="Layer_1" xmlns="http://www.w3.org/2000/svg" xmlns:xlink="http://www.w3.org/1999/xlink" x="0px" y="0px"
	 width="1440px" height="1440px" viewBox="0 0 1440 1440" enable-background="new 0 0 1440 1440" xml:space="preserve">
<path stroke="#000000" stroke-miterlimit="10" d="M3602.625-70.572c-98.622,0-178.571,79.949-178.571,178.571
	c0,98.623,79.949,178.572,178.571,178.572c98.623,0,178.572-79.949,178.572-178.572C3781.197,9.377,3701.248-70.572,3602.625-70.572
	z M3688.738,41.193c0,0-22-5.333-29.333,4s-4.667,22.667-4.667,22.667h34v35.201v2.799h-32v109.333h-49.333V105.859h-30.667V69.193
	v-1.333h30.47c0,0-7.253-42.209,17.697-57.417c26.25-16,63.833-7.25,63.833-7.25V41.193z"/>
<path stroke="#000000" stroke-miterlimit="10" d="M4111.615-80.572c-98.622,0-178.571,79.949-178.571,178.571
	c0,98.623,79.949,178.572,178.571,178.572c98.623,0,178.572-79.949,178.572-178.572C4290.188-0.623,4210.238-80.572,4111.615-80.572
	z M4245.255,53.328c-5.606,4.254-11.407,8.508-11.407,8.508s1.354,60.712-33.836,97.062s-95.782,55.685-136.504,41.763
	c-40.723-13.921-40.723-17.595-40.723-17.595s22.547,4.447,44.976-4.833c22.429-9.281,26.103-14.695,26.103-14.695
	s-15.469,1.547-29.389-11.601c-13.922-13.147-15.082-22.042-15.082-22.042s7.928,1.354,12.762,0.773c4.833-0.58,8.7-1.934,8.7-1.934
	s-17.401-1.354-29.39-18.368c-11.987-17.015-9.28-29.775-9.28-29.775s5.607,4.061,11.407,5.607c5.801,1.547,10.441,1.16,10.441,1.16
	s-21.075-11.795-21.655-37.123c-0.58-25.329,6.767-27.263,6.767-27.263s24.943,29.969,54.719,40.41
	c29.775,10.44,44.276,9.667,44.276,9.667s-6.96-39.829,29.97-55.685c36.93-15.854,52.59,11.795,52.59,11.795
	s11.795-2.127,17.789-5.414s12.761-6.381,12.761-6.381s-2.32,9.668-6.188,13.922c-3.866,4.254-14.501,12.567-14.501,12.567
	s9.088-0.58,16.048-3.094c6.961-2.514,11.065-4.446,11.065-4.446S4250.862,49.075,4245.255,53.328z"/>
<g>
	<path stroke="#000000" stroke-miterlimit="10" d="M3524.54,454.683c-53.244,20.88-5.22,134.676,41.76,95.004
		S3558.986,441.174,3524.54,454.683z"/>
	<path stroke="#000000" stroke-miterlimit="10" d="M3539.08,701.95c21.828,2.107,44.606-3.465,56.451-17.588
		c27.145-32.364-32.363-69.948-32.363-69.948s-77.256-4.176-78.3,42.804c-0.03,1.381,0.019,2.729,0.132,4.051
		C3500.193,678.041,3518.531,691.907,3539.08,701.95z"/>
	<path stroke="#000000" stroke-miterlimit="10" d="M3617.384,362.857c-98.622,0-178.571,79.949-178.571,178.572
		c0,33.595,9.284,65.019,25.416,91.858c3.866-4.865,8.689-9.168,14.375-12.609c34.166-20.679,65.211-17.357,73.178-16.036
		c-3.162-0.992-9.174-4.616-11.063-17.877c-2.606-18.286,6.79-24.551,6.79-24.551s-60.552,18.792-77.256-41.76
		s53.244-85.607,99.18-84.563s67.86-0.031,67.86-0.031l-22.968,17.779h-27.145c0,0,28.188,10.439,30.275,48.023
		c2.089,37.584-30.275,54.288-30.275,54.288s-11.484,5.22-11.484,13.572c0,8.352-2.088-6.265,0,8.352s56.377,24.012,52.2,65.771
		c-2.993,29.936-16.183,59.867-52.636,71.344c13.509,3.267,27.611,5.011,42.124,5.011c98.623,0,178.572-79.949,178.572-178.571
		C3795.956,442.806,3716.007,362.857,3617.384,362.857z M3729.686,584.66h-33.93v33.93h-24.012v-33.93h-33.931v-24.012h33.931
		v-33.931h24.012v33.931h33.93V584.66z"/>
</g>
<circle stroke="#000000" stroke-miterlimit="10" cx="4474.228" cy="657.574" r="178.572"/>
<circle stroke="#000000" stroke-miterlimit="10" cx="3617.384" cy="1121.911" r="178.572"/>
<circle stroke="#000000" stroke-miterlimit="10" cx="4474.228" cy="1101.004" r="178.572"/>
<g>
	<rect x="4448.342" y="617.435" fill="#FFFFFF" width="112" height="38"/>
	<path fill="#FFFFFF" d="M4560.342,552.768v38c0,0-22-5.333-29.334,4c-7.332,9.334-4.666,22.667-4.666,22.667h34v35.2h-32v112.133
		h-49.334V655.435h-30.666v-36.667l30.469-1.333c0,0-7.252-42.209,17.697-57.417
		C4522.758,544.018,4560.342,552.768,4560.342,552.768z"/>
</g>
<path fill="#FFFFFF" d="M3544.913,1046.885c0,0,24.943,29.969,54.719,40.41c29.775,10.44,44.276,9.667,44.276,9.667
	s-6.96-39.829,29.97-55.685c36.93-15.854,52.59,11.795,52.59,11.795s11.795-2.127,17.789-5.414s12.761-6.381,12.761-6.381
	s-2.32,9.668-6.188,13.922c-3.866,4.254-14.501,12.567-14.501,12.567s9.088-0.58,16.048-3.094
	c6.961-2.514,11.065-4.446,11.065-4.446s-6.812,12.761-12.419,17.014c-5.606,4.254-11.407,8.508-11.407,8.508
	s1.354,60.712-33.836,97.062s-95.782,55.685-136.504,41.763c-40.723-13.921-40.723-17.595-40.723-17.595s22.547,4.447,44.976-4.833
	c22.429-9.281,26.103-14.695,26.103-14.695s-15.469,1.547-29.389-11.601c-13.922-13.147-15.082-22.042-15.082-22.042
	s7.928,1.354,12.762,0.773c4.833-0.58,8.7-1.934,8.7-1.934s-17.401-1.354-29.39-18.368c-11.987-17.015-9.28-29.775-9.28-29.775
	s5.607,4.061,11.407,5.607c5.801,1.547,10.441,1.16,10.441,1.16s-21.075-11.795-21.655-37.123
	C3537.566,1048.818,3544.913,1046.885,3544.913,1046.885z"/>
<g>
	<path fill="#FFFFFF" d="M4444.023,1013.214c0,0,28.188,10.439,30.275,48.023c2.089,37.584-30.275,54.288-30.275,54.288
		s-11.484,5.22-11.484,13.572c0,8.352-2.088-6.265,0,8.352s56.377,24.012,52.2,65.771c-4.176,41.761-28.188,83.521-107.532,75.168
		c-79.344-8.352-81.432-74.123-41.76-98.136c39.672-24.012,75.168-15.66,75.168-15.66s-10.447,0.033-13.054-18.253
		s6.79-24.551,6.79-24.551s-60.552,18.792-77.256-41.76s53.244-85.607,99.18-84.563s67.86-0.031,67.86-0.031l-22.968,17.779
		H4444.023z"/>
	<path d="M4381.384,1014.258c34.446-13.509,88.739,55.332,41.76,95.004S4328.14,1035.138,4381.384,1014.258z"/>
	<path d="M4420.012,1173.989c0,0-77.256-4.176-78.3,42.804c-1.044,46.98,83.52,59.508,110.663,27.145
		C4479.52,1211.573,4420.012,1173.989,4420.012,1173.989z"/>
	<rect x="4528.588" y="1086.293" fill="#FFFFFF" width="24.012" height="91.872"/>
	<rect x="4494.657" y="1120.224" fill="#FFFFFF" width="91.872" height="24.012"/>
</g>
<path fill="#583E87" d="M720,72C362.12,72,72,362.119,72,720c0,357.879,290.12,648,648,648c357.881,0,648-290.121,648-648
	C1368,362.119,1077.881,72,720,72z M457.11,1145.467H275.065V580.483H457.11V1145.467z M360.256,511.302
	c-59.859,0-108.384-48.525-108.384-108.384c0-59.858,48.525-108.384,108.384-108.384s108.384,48.526,108.384,108.384
	C468.641,462.776,420.116,511.302,360.256,511.302z M1101.651,1145.467H927.545V823.772c0,0,3.46-101.852-98.008-103.773
	c-89.92-1.703-94.478,104.157-94.478,104.157l-1.224,321.311H557.423V580.483h168.342v79.559c0,0,36.896-93.395,182.178-93.395
	s193.708,115.302,193.708,235.218C1101.651,921.779,1101.651,1145.467,1101.651,1145.467z"/>
</svg>
