<?xml version="1.0" encoding="utf-8"?>
<!-- Generator: Adobe Illustrator 16.0.3, SVG Export Plug-In . SVG Version: 6.00 Build 0)  -->
<!DOCTYPE svg PUBLIC "-//W3C//DTD SVG 1.1//EN" "http://www.w3.org/Graphics/SVG/1.1/DTD/svg11.dtd">
<svg version="1.1" id="Layer_1" xmlns="http://www.w3.org/2000/svg" xmlns:xlink="http://www.w3.org/1999/xlink" x="0px" y="0px"
	 width="1440px" height="1440px" viewBox="0 0 1440 1440" enable-background="new 0 0 1440 1440" xml:space="preserve">
<g>
	<path fill="#583E87" d="M1222.749,1115.757c-33.162,0-52.965-21.808-52.965-54.298c0-32.492,19.137-58.081,50.513-58.081
		c35.161,0,44.509,30.93,44.509,50.735c0,4.008-0.446,7.123-0.666,9.125h-75.666c0.447,26.482,17.361,37.387,36.943,37.387
		c8.722,0,15.288-0.949,20.777-2.413C1322.831,991.775,1368,861.171,1368,719.998C1368,362.12,1077.881,72,720.002,72
		C362.119,72,72,362.12,72,719.998c0,158.211,56.728,303.157,150.914,415.671c-0.681-2.271-1.322-4.624-1.887-7.13
		c-15.573-69.104,216.066-201.469,216.066-201.469c-74.941,59.372-192.708,196.604-175.189,226.774
		c52.556-8.76,103.167-82.729,176.162-186.868c67.517-96.322,200.816-379.17,238.926-454.964h-0.004
		c-54.092-148.476-49.461-312.714-47.187-332.414c2.921-25.306,55.476-63.263,105.113-28.226
		c49.637,35.041,8.76,110.955,8.76,110.955c6.579-50.661-8.76-82.729-50.61-119.714c-36.627,52.525-22.221,167.863,15.349,286.43
		v-0.003c16.544-58.808,32.094-131.32,34.835-144.251c0.855-20.515,0.427-2.023,0.427-2.023s-0.147,0.705-0.427,2.023
		c-0.433,10.333-1.189,30.558-2.493,68.054c-1.893,54.417-9.124,95.766-16.054,123.896l0.11,0.315
		c11.841,32.358,25.13,64.351,39.302,94.774C806.664,663.172,877,727.055,953.134,772.563
		c96.276-15.553,344.817-45.672,324.157,62.048c0,0-16.067-66.768-275.813-35.816c39.286,19.342,78.881,34.459,115.934,46.522
		c125.552,40.881,136.257,20.439,157.668,5.84c18.492,44.771-81.754,70.074-195.629,25.306
		c-48.361-19.016-95.674-36.802-143.195-63.426c-1.478-0.829-2.959-1.684-4.437-2.526c-8.611,1.208-52.025,7.452-138.507,22.155
		c-97.329,16.546-260.838,72.022-260.838,72.022s-8.76,22.383-77.863,123.603c-69.101,101.224-125.551,139.181-141.124,143.075
		c-8.859,2.215-32.524,10.394-54.15,4.323C376.792,1294.418,539.796,1368,720.002,1368c209.084,0,395.003-99.051,513.491-252.761
		C1230.166,1115.555,1226.612,1115.757,1222.749,1115.757z M627.479,1113.531c-2.446-4.228-5.785-17.134-10.013-35.827
		c-4.45-20.695-12.463-28.484-30.044-29.154h-18.246v64.981h-19.361V965.545c9.791-2.002,23.813-3.115,37.163-3.115
		c20.697,0,34.048,3.781,43.396,12.24c7.565,6.676,11.795,16.91,11.795,28.484c0,19.807-12.463,32.936-28.264,38.275v0.667
		c11.572,4.008,18.471,14.688,22.031,30.267c4.896,20.916,8.456,35.381,11.572,41.168H627.479z M756.325,1063.238h-75.662
		c0.446,26.482,17.358,37.387,36.941,37.387c14.02,0,22.477-2.449,29.82-5.563l3.337,14.019c-6.898,3.115-18.692,6.677-35.827,6.677
		c-33.159,0-52.963-21.808-52.963-54.298c0-32.492,19.138-58.081,50.514-58.081c35.161,0,44.508,30.93,44.508,50.735
		C756.993,1058.121,756.548,1061.236,756.325,1063.238z M803.942,1115.757c-11.793,0-22.697-2.892-30.264-7.343l4.896-14.912
		c5.787,3.785,16.023,7.789,25.814,7.789c14.243,0,20.919-7.119,20.919-16.021c0-9.348-5.563-14.465-20.029-19.806
		c-19.359-6.899-28.484-17.58-28.484-30.487c0-17.356,14.022-31.599,37.163-31.599c10.907,0,20.476,3.114,26.482,6.673
		l-4.894,14.242c-4.231-2.668-12.021-6.23-22.035-6.23c-11.566,0-18.023,6.677-18.023,14.689c0,8.901,6.457,12.906,20.476,18.246
		c18.689,7.123,28.258,16.469,28.258,32.489C844.221,1102.404,829.535,1115.757,803.942,1115.757z M943.027,1113.531l-1.112-17.58
		h-0.447c-5.117,8.678-16.464,20.029-35.604,20.029c-16.914,0-37.164-9.349-37.164-47.178v-62.98h19.583v59.642
		c0,20.473,6.23,34.271,24.034,34.271c13.129,0,22.254-9.125,25.813-17.804c1.113-2.895,1.782-6.453,1.782-10.015v-66.095h19.583
		v78.335c0,11.128,0.223,20.919,0.89,29.374H943.027z M1145.754,1113.531h-19.14v-60.974c0-20.695-7.565-33.159-23.367-33.159
		c-11.124,0-19.803,8.232-23.141,17.805c-0.894,2.668-1.56,6.229-1.56,9.791v66.537h-19.136v-64.535
		c0-17.134-7.569-29.598-22.479-29.598c-12.236,0-21.139,9.792-24.257,19.583c-1.112,2.892-1.56,6.229-1.56,9.568v64.981H991.98
		v-78.555c0-11.127-0.22-20.252-0.89-29.154h17.134l0.894,17.357h0.666c6.01-10.234,16.025-19.802,33.825-19.802
		c14.688,0,25.816,8.897,30.486,21.585h0.447c3.338-6.011,7.565-10.682,12.017-14.02c6.453-4.897,13.576-7.565,23.811-7.565
		c14.242,0,35.384,9.345,35.384,46.731V1113.531z"/>
	<path fill="#583E87" d="M710.928,1017.396c-19.806,0-28.484,18.247-30.042,31.823h57.192
		C738.3,1036.756,732.96,1017.396,710.928,1017.396z"/>
	<path fill="#583E87" d="M622.808,1005.38c0-19.363-14.021-27.818-34.493-28.042c-9.347,0-16.022,0.89-19.138,1.783v54.743h19.806
		C609.678,1033.864,622.808,1022.514,622.808,1005.38z"/>
	<path fill="#583E87" d="M887.376,782.213c-1.095-0.776-2.197-1.549-3.295-2.336c-47.352-34.059-95.368-80.365-145.274-148.681
		c-15.403-21.085-28.692-43.872-40.15-67.618c-10.017,31.316-27.188,77.094-54.257,126.99
		c-49.637,91.484-102.192,191.734-102.192,191.734s14.599-12.655,92.46-37.957c65.017-21.132,207.398-52.441,252.61-62.197
		L887.376,782.213z"/>
	<path fill="#583E87" d="M1218.741,1017.396c-19.807,0-28.484,18.247-30.041,31.823h57.189
		C1246.113,1036.756,1240.772,1017.396,1218.741,1017.396z"/>
</g>
<path fill="#583E87" stroke="#000000" stroke-miterlimit="10" d="M178.571-586.638C79.949-586.638,0-506.688,0-408.066
	c0,98.623,79.949,178.572,178.571,178.572c98.623,0,178.572-79.949,178.572-178.572
	C357.145-506.688,277.194-586.638,178.571-586.638z M312.211-452.737c-5.605,4.254-11.407,8.508-11.407,8.508
	s1.354,60.712-33.836,97.062c-35.19,36.35-95.782,55.685-136.504,41.763C89.741-319.326,89.741-323,89.741-323
	s22.547,4.447,44.976-4.833c22.429-9.281,26.103-14.695,26.103-14.695s-15.469,1.547-29.389-11.601
	c-13.922-13.147-15.082-22.042-15.082-22.042s7.928,1.354,12.762,0.773c4.833-0.58,8.7-1.934,8.7-1.934s-17.401-1.354-29.39-18.368
	c-11.987-17.015-9.28-29.775-9.28-29.775s5.607,4.061,11.407,5.607c5.801,1.547,10.441,1.16,10.441,1.16
	s-21.075-11.795-21.655-37.123c-0.58-25.329,6.767-27.263,6.767-27.263s24.943,29.969,54.719,40.41
	c29.775,10.44,44.276,9.667,44.276,9.667s-6.96-39.829,29.97-55.685c36.93-15.854,52.59,11.795,52.59,11.795
	s11.795-2.127,17.789-5.414c5.995-3.287,12.761-6.381,12.761-6.381s-2.32,9.668-6.188,13.922c-3.865,4.254-14.5,12.567-14.5,12.567
	s9.088-0.58,16.048-3.094c6.961-2.514,11.064-4.446,11.064-4.446S317.818-456.99,312.211-452.737z"/>
<g>
	<path fill="#583E87" stroke="#000000" stroke-miterlimit="10" d="M-448.804,1353.254c-53.244,20.88-5.22,134.676,41.76,95.004
		S-414.358,1339.745-448.804,1353.254z"/>
	<path fill="#583E87" stroke="#000000" stroke-miterlimit="10" d="M-434.264,1600.521c21.828,2.106,44.607-3.466,56.452-17.589
		c27.144-32.363-32.364-69.947-32.364-69.947s-77.256-4.177-78.3,42.804c-0.031,1.381,0.019,2.729,0.132,4.051
		C-473.151,1576.612-454.813,1590.479-434.264,1600.521z"/>
	<path fill="#583E87" stroke="#000000" stroke-miterlimit="10" d="M-355.96,1261.428c-98.622,0-178.571,79.949-178.571,178.572
		c0,33.595,9.284,65.02,25.417,91.858c3.866-4.865,8.689-9.168,14.375-12.609c34.165-20.679,65.211-17.357,73.178-16.036
		c-3.163-0.992-9.174-4.616-11.064-17.877c-2.606-18.286,6.79-24.551,6.79-24.551s-60.552,18.792-77.256-41.76
		c-16.704-60.553,53.244-85.607,99.18-84.563s67.86-0.031,67.86-0.031l-22.968,17.779h-27.144c0,0,28.188,10.439,30.276,48.023
		c2.088,37.584-30.276,54.288-30.276,54.288s-11.484,5.22-11.484,13.571c0,8.353-2.088-6.265,0,8.353s56.376,24.012,52.2,65.771
		c-2.993,29.937-16.183,59.867-52.636,71.345c13.509,3.267,27.612,5.011,42.124,5.011c98.623,0,178.572-79.949,178.572-178.571
		C-177.388,1341.377-257.337,1261.428-355.96,1261.428z M-243.658,1483.23h-33.93v33.931H-301.6v-33.931h-33.93v-24.012h33.93
		v-33.931h24.012v33.931h33.93V1483.23L-243.658,1483.23z"/>
</g>
<circle stroke="#000000" stroke-miterlimit="10" cx="-1295.116" cy="550.718" r="178.572"/>
<circle stroke="#000000" stroke-miterlimit="10" cx="-800.884" cy="550.718" r="178.572"/>
<circle stroke="#000000" stroke-miterlimit="10" cx="-1295.116" cy="994.147" r="178.572"/>
<g>
	<rect x="-1321.002" y="510.578" fill="#FFFFFF" width="112" height="38"/>
	<path fill="#FFFFFF" d="M-1209.002,445.911v38c0,0-22-5.333-29.334,4c-7.332,9.334-4.666,22.667-4.666,22.667h34v35.2h-32v112.133
		h-49.334V548.578h-30.666v-36.667l30.469-1.333c0,0-7.252-42.209,17.697-57.417
		C-1246.586,437.161-1209.002,445.911-1209.002,445.911z"/>
</g>
<path fill="#FFFFFF" d="M-873.355,475.691c0,0,24.943,29.969,54.719,40.409c29.775,10.44,44.276,9.667,44.276,9.667
	s-6.96-39.828,29.97-55.685c36.93-15.854,52.59,11.795,52.59,11.795s11.795-2.127,17.789-5.414
	c5.994-3.287,12.761-6.381,12.761-6.381s-2.32,9.668-6.188,13.922c-3.866,4.254-14.501,12.567-14.501,12.567
	s9.088-0.58,16.048-3.094c6.961-2.515,11.065-4.446,11.065-4.446s-6.812,12.761-12.419,17.014
	c-5.606,4.254-11.407,8.508-11.407,8.508s1.354,60.712-33.836,97.063c-35.19,36.35-95.782,55.685-136.504,41.763
	c-40.723-13.921-40.723-17.595-40.723-17.595s22.547,4.447,44.976-4.833c22.429-9.281,26.103-14.695,26.103-14.695
	s-15.469,1.547-29.389-11.601c-13.922-13.147-15.082-22.042-15.082-22.042s7.928,1.354,12.762,0.772c4.833-0.58,8.7-1.934,8.7-1.934
	s-17.401-1.354-29.39-18.368c-11.987-17.015-9.28-29.775-9.28-29.775s5.607,4.062,11.407,5.607c5.801,1.547,10.441,1.16,10.441,1.16
	s-21.075-11.795-21.655-37.123S-873.355,475.691-873.355,475.691z"/>
<g>
	<path fill="#FFFFFF" d="M-1325.32,906.357c0,0,28.188,10.438,30.275,48.022c2.089,37.584-30.275,54.288-30.275,54.288
		s-11.484,5.22-11.484,13.572c0,8.352-2.088-6.266,0,8.352c2.088,14.617,56.377,24.012,52.2,65.771
		c-4.176,41.761-28.188,83.521-107.532,75.168c-79.344-8.353-81.432-74.123-41.76-98.137c39.672-24.012,75.168-15.659,75.168-15.659
		s-10.447,0.032-13.054-18.253c-2.606-18.286,6.79-24.552,6.79-24.552s-60.552,18.792-77.256-41.76s53.244-85.607,99.18-84.563
		c45.936,1.045,67.86-0.03,67.86-0.03l-22.968,17.778h-27.144V906.357z"/>
	<path d="M-1387.96,907.401c34.446-13.51,88.739,55.332,41.76,95.004C-1393.179,1042.077-1441.204,928.281-1387.96,907.401z"/>
	<path d="M-1349.332,1067.133c0,0-77.256-4.176-78.3,42.805c-1.044,46.979,83.52,59.508,110.663,27.145
		C-1289.824,1104.717-1349.332,1067.133-1349.332,1067.133z"/>
	<rect x="-1240.756" y="979.438" fill="#FFFFFF" width="24.012" height="91.871"/>
	<rect x="-1274.687" y="1013.367" fill="#FFFFFF" width="91.872" height="24.012"/>
</g>
</svg>
