<?xml version="1.0" encoding="utf-8"?>
<!-- Generator: Adobe Illustrator 16.0.3, SVG Export Plug-In . SVG Version: 6.00 Build 0)  -->
<!DOCTYPE svg PUBLIC "-//W3C//DTD SVG 1.1//EN" "http://www.w3.org/Graphics/SVG/1.1/DTD/svg11.dtd">
<svg version="1.1" id="Layer_1" xmlns="http://www.w3.org/2000/svg" xmlns:xlink="http://www.w3.org/1999/xlink" x="0px" y="0px"
	 width="1440px" height="1440px" viewBox="0 0 1440 1440" enable-background="new 0 0 1440 1440" xml:space="preserve">
<g>
	<path fill="#583E87" d="M343.244,876.311c-10.92,0-17.118,0.886-20.364,1.475v54.896h17.708c22.431,0,35.711-11.217,35.711-28.631
		C376.299,885.755,363.902,876.604,343.244,876.311z"/>
	<path fill="#583E87" d="M513.823,925.598c-18.888,0-26.561,17.115-27.74,29.218h53.122
		C539.205,943.894,534.483,925.598,513.823,925.598z"/>
	<path fill="#583E87" d="M1223.591,925.598c-18.888,0-26.561,17.115-27.74,29.218h53.124
		C1248.975,943.894,1244.251,925.598,1223.591,925.598z"/>
	<path fill="#583E87" d="M442.283,561.854c44.921-14.599,143.292-36.229,174.527-42.97l0.069,0.042
		c-0.756-0.535-1.517-1.07-2.277-1.616c-32.712-23.527-65.889-55.521-100.37-102.72c-10.64-14.572-19.822-30.313-27.739-46.717
		c-6.921,21.634-18.784,53.263-37.486,87.736c-34.295,63.21-70.606,132.467-70.606,132.467S388.487,579.336,442.283,561.854z"/>
	<path fill="#583E87" d="M719.429,70.75c-67.631,0-132.833,10.376-194.122,29.597c10.341,25.82-7.709,59.394-7.709,59.394
		c2.79-21.496-0.156-38.138-9.519-53.702c-13.291,4.582-26.395,9.568-39.276,14.979c-3.934,40.973,6.365,96.89,24.431,153.904
		c11.429-40.635,22.173-90.733,24.068-99.667c0.592-14.171,0.296-1.396,0.296-1.396s-0.102,0.486-0.296,1.396
		c-0.3,7.141-0.821,21.114-1.723,47.019c-1.308,37.6-6.304,66.164-11.09,85.598l0.076,0.217
		c8.181,22.361,17.362,44.463,27.152,65.485c29.398,63.107,77.993,107.249,130.595,138.689
		c66.52-10.745,238.236-31.558,223.962,42.867c0,0-11.099-46.128-190.563-24.745c27.144,13.364,54.5,23.809,80.1,32.144
		c86.745,28.24,94.141,14.118,108.936,4.032c12.775,30.93-56.483,48.415-135.163,17.485c-33.414-13.141-66.1-25.43-98.933-43.82
		c-1.022-0.574-2.045-1.166-3.065-1.747c-5.95,0.833-35.946,5.148-95.695,15.305c-67.245,11.43-180.213,49.763-180.213,49.763
		s-6.053,15.462-53.796,85.395c-47.744,69.939-86.743,96.163-97.502,98.853c-10.76,2.69-53.123,18.151-63.883-29.59
		c-10.759-47.742,149.279-139.195,149.279-139.195c-51.773,41.022-133.14,135.832-121.036,156.68
		c36.312-6.053,71.279-57.157,121.709-129.106c46.648-66.552,138.746-261.967,165.076-314.337h-0.003
		c-26.961-74.002-32.805-153.666-33.379-197.421C221.144,239.546,71.427,461.66,71.427,718.748
		c0,357.881,290.119,648.002,648.002,648.002s648-290.121,648-648.002C1367.429,360.868,1077.312,70.75,719.429,70.75z
		 M382.497,1043.353c-3.248-5.606-7.969-21.84-13.872-46.335c-5.313-24.792-13.871-31.578-32.169-31.876H322.88v78.211h-44.564
		V847.092c14.462-2.359,36.006-4.132,59.911-4.132c29.514,0,50.172,4.427,64.338,15.643c11.804,9.444,18.298,23.314,18.298,41.614
		c0,25.381-18.002,42.791-35.121,48.988v0.887c13.871,5.605,21.544,18.888,26.563,37.188c6.196,22.429,12.394,48.401,16.23,56.073
		H382.497z M579.342,985.508h-92.965c1.476,18.594,19.774,27.446,40.729,27.446c15.346,0,27.742-2.065,39.841-5.903l5.903,30.398
		c-14.756,5.903-32.76,8.852-52.238,8.852c-48.991,0-77.027-28.328-77.027-73.483c0-36.597,22.725-77.03,72.897-77.03
		c46.627,0,64.335,36.302,64.335,72.013C580.816,975.472,579.931,982.262,579.342,985.508z M646.039,1046.301
		c-18.888,0-35.71-4.132-46.629-10.032l7.969-32.167c8.262,5.015,25.38,10.919,38.66,10.919c13.576,0,19.185-4.721,19.185-12.103
		c0-7.378-4.426-10.918-21.25-16.524c-29.806-10.036-41.317-26.267-41.022-43.386c0-26.855,23.02-47.221,58.731-47.221
		c16.822,0,31.874,3.838,40.729,8.264l-7.969,30.99c-6.494-3.544-18.888-8.264-31.284-8.264c-10.92,0-17.118,4.426-17.118,11.804
		c0,6.79,5.608,10.33,23.316,16.528c27.446,9.444,38.957,23.314,39.252,44.563C708.608,1026.53,687.357,1046.301,646.039,1046.301z
		 M834.032,1043.353l-2.063-20.362h-0.886c-5.609,8.853-19.186,23.608-45.154,23.608c-29.223,0-50.765-18.296-50.765-62.862v-84.703
		h45.154v77.619c0,20.954,6.786,33.647,22.429,33.647c12.396,0,19.48-8.562,22.432-15.642c1.181-2.658,1.475-6.198,1.475-9.742
		v-85.883h45.154v97.984c0,18.889,0.592,34.233,1.184,46.335H834.032z M1125.907,1043.353h-43.677v-78.505
		c0-20.954-6.783-33.053-21.248-33.053c-10.327,0-17.705,7.08-20.66,15.643c-1.177,3.246-1.772,7.966-1.772,11.51v84.405h-43.673
		v-80.865c0-18.3-6.492-30.692-20.66-30.692c-11.511,0-18.301,8.853-20.955,16.23c-1.478,3.544-1.768,7.672-1.768,11.216v84.111
		h-43.681v-98.279c0-18.002-0.592-33.347-1.184-46.04h37.776l2.069,19.48h0.886c6.195-9.15,18.889-22.727,43.678-22.727
		c18.594,0,33.35,9.443,39.545,24.498h0.592c5.312-7.379,11.804-13.282,18.594-17.414c7.967-4.721,16.818-7.084,27.443-7.084
		c27.744,0,48.694,19.48,48.694,62.568V1043.353z M1236.873,1012.954c15.348,0,27.744-2.065,39.843-5.903l5.903,30.398
		c-14.756,5.903-32.762,8.852-52.242,8.852c-48.988,0-77.027-28.328-77.027-73.483c0-36.597,22.727-77.03,72.899-77.03
		c46.629,0,64.337,36.302,64.337,72.013c0,7.672-0.886,14.462-1.475,17.708h-92.967
		C1197.619,1004.102,1215.919,1012.954,1236.873,1012.954z"/>
</g>
<path fill="#583E87" stroke="#000000" stroke-miterlimit="10" d="M178.571-586.638C79.949-586.638,0-506.688,0-408.066
	c0,98.623,79.949,178.572,178.571,178.572c98.623,0,178.572-79.949,178.572-178.572
	C357.145-506.688,277.194-586.638,178.571-586.638z M312.211-452.737c-5.605,4.254-11.407,8.508-11.407,8.508
	s1.354,60.712-33.836,97.062c-35.19,36.35-95.782,55.685-136.504,41.763C89.741-319.326,89.741-323,89.741-323
	s22.547,4.447,44.976-4.833c22.429-9.281,26.103-14.695,26.103-14.695s-15.469,1.547-29.389-11.601
	c-13.922-13.147-15.082-22.042-15.082-22.042s7.928,1.354,12.762,0.773c4.833-0.58,8.7-1.934,8.7-1.934s-17.401-1.354-29.39-18.368
	c-11.987-17.015-9.28-29.775-9.28-29.775s5.607,4.061,11.407,5.607c5.801,1.547,10.441,1.16,10.441,1.16
	s-21.075-11.795-21.655-37.123c-0.58-25.329,6.767-27.263,6.767-27.263s24.943,29.969,54.719,40.41
	c29.775,10.44,44.276,9.667,44.276,9.667s-6.96-39.829,29.97-55.685c36.93-15.854,52.59,11.795,52.59,11.795
	s11.795-2.127,17.789-5.414c5.997-3.287,12.761-6.381,12.761-6.381s-2.32,9.668-6.188,13.922c-3.863,4.254-14.5,12.567-14.5,12.567
	s9.088-0.58,16.048-3.094c6.961-2.514,11.063-4.446,11.063-4.446S317.818-456.99,312.211-452.737z"/>
<g>
	<path fill="#583E87" stroke="#000000" stroke-miterlimit="10" d="M-448.804,1353.254c-53.244,20.88-5.22,134.676,41.76,95.004
		S-414.358,1339.745-448.804,1353.254z"/>
	<path fill="#583E87" stroke="#000000" stroke-miterlimit="10" d="M-434.264,1600.521c21.828,2.104,44.607-3.468,56.452-17.591
		c27.144-32.361-32.364-69.945-32.364-69.945s-77.256-4.179-78.3,42.804c-0.031,1.381,0.019,2.729,0.132,4.051
		C-473.151,1576.612-454.813,1590.479-434.264,1600.521z"/>
	<path fill="#583E87" stroke="#000000" stroke-miterlimit="10" d="M-355.96,1261.428c-98.622,0-178.571,79.949-178.571,178.572
		c0,33.595,9.284,65.02,25.417,91.858c3.866-4.865,8.689-9.168,14.375-12.609c34.165-20.679,65.211-17.357,73.178-16.036
		c-3.163-0.992-9.174-4.616-11.064-17.877c-2.606-18.286,6.79-24.551,6.79-24.551s-60.552,18.792-77.256-41.76
		c-16.704-60.555,53.244-85.607,99.18-84.563s67.86-0.031,67.86-0.031l-22.968,17.779h-27.144c0,0,28.188,10.439,30.276,48.023
		c2.088,37.584-30.276,54.288-30.276,54.288s-11.484,5.22-11.484,13.569c0,8.354-2.088-6.265,0,8.354s56.376,24.012,52.2,65.771
		c-2.993,29.938-16.183,59.867-52.636,71.345c13.509,3.269,27.612,5.013,42.124,5.013c98.623,0,178.572-79.949,178.572-178.571
		C-177.388,1341.377-257.337,1261.428-355.96,1261.428z M-243.658,1483.23h-33.93v33.931H-301.6v-33.931h-33.93v-24.014h33.93
		v-33.931h24.012v33.931h33.93V1483.23L-243.658,1483.23z"/>
</g>
<circle stroke="#000000" stroke-miterlimit="10" cx="-1295.116" cy="550.718" r="178.572"/>
<circle stroke="#000000" stroke-miterlimit="10" cx="-800.884" cy="550.718" r="178.572"/>
<circle stroke="#000000" stroke-miterlimit="10" cx="-1295.116" cy="994.147" r="178.572"/>
<g>
	<rect x="-1321.002" y="510.578" fill="#FFFFFF" width="112" height="38"/>
	<path fill="#FFFFFF" d="M-1209.002,445.911v38c0,0-22-5.333-29.334,4c-7.332,9.334-4.666,22.667-4.666,22.667h34v35.2h-32v112.133
		h-49.334V548.578h-30.666v-36.667l30.469-1.333c0,0-7.252-42.209,17.697-57.417
		C-1246.586,437.161-1209.002,445.911-1209.002,445.911z"/>
</g>
<path fill="#FFFFFF" d="M-873.355,475.691c0,0,24.943,29.969,54.719,40.407c29.775,10.44,44.276,9.667,44.276,9.667
	s-6.96-39.826,29.97-55.685c36.93-15.854,52.59,11.795,52.59,11.795s11.795-2.127,17.789-5.414
	c5.994-3.287,12.761-6.381,12.761-6.381s-2.32,9.668-6.188,13.922c-3.866,4.254-14.501,12.567-14.501,12.567
	s9.088-0.58,16.048-3.096c6.961-2.515,11.065-4.444,11.065-4.444s-6.812,12.761-12.419,17.014
	c-5.606,4.254-11.407,8.508-11.407,8.508s1.354,60.712-33.836,97.063c-35.19,36.35-95.782,55.685-136.504,41.763
	c-40.723-13.921-40.723-17.595-40.723-17.595s22.547,4.447,44.976-4.833c22.429-9.281,26.103-14.695,26.103-14.695
	s-15.469,1.547-29.389-11.601c-13.922-13.147-15.082-22.042-15.082-22.042s7.928,1.354,12.762,0.771c4.833-0.58,8.7-1.934,8.7-1.934
	s-17.401-1.354-29.39-18.368c-11.987-17.015-9.28-29.775-9.28-29.775s5.607,4.063,11.407,5.607c5.801,1.547,10.441,1.16,10.441,1.16
	s-21.075-11.795-21.655-37.123S-873.355,475.691-873.355,475.691z"/>
<g>
	<path fill="#FFFFFF" d="M-1325.32,906.357c0,0,28.188,10.438,30.275,48.021c2.089,37.584-30.275,54.288-30.275,54.288
		s-11.484,5.22-11.484,13.572c0,8.352-2.088-6.268,0,8.352c2.088,14.617,56.377,24.014,52.2,65.771
		c-4.176,41.761-28.188,83.521-107.532,75.168c-79.344-8.354-81.432-74.123-41.76-98.139c39.672-24.012,75.168-15.657,75.168-15.657
		s-10.447,0.03-13.054-18.254c-2.604-18.285,6.79-24.553,6.79-24.553s-60.552,18.792-77.256-41.76s53.244-85.606,99.18-84.563
		c45.936,1.046,67.86-0.029,67.86-0.029l-22.968,17.777h-27.144V906.357z"/>
	<path d="M-1387.96,907.401c34.446-13.512,88.739,55.332,41.76,95.004C-1393.179,1042.077-1441.204,928.281-1387.96,907.401z"/>
	<path d="M-1349.332,1067.133c0,0-77.256-4.176-78.3,42.807c-1.044,46.979,83.52,59.508,110.663,27.145
		C-1289.824,1104.717-1349.332,1067.133-1349.332,1067.133z"/>
	<rect x="-1240.756" y="979.438" fill="#FFFFFF" width="24.012" height="91.871"/>
	<rect x="-1274.687" y="1013.367" fill="#FFFFFF" width="91.872" height="24.012"/>
</g>
</svg>
