<?xml version="1.0" encoding="utf-8"?>
<!-- Generator: Adobe Illustrator 16.0.3, SVG Export Plug-In . SVG Version: 6.00 Build 0)  -->
<!DOCTYPE svg PUBLIC "-//W3C//DTD SVG 1.1//EN" "http://www.w3.org/Graphics/SVG/1.1/DTD/svg11.dtd">
<svg version="1.1" id="Layer_1" xmlns="http://www.w3.org/2000/svg" xmlns:xlink="http://www.w3.org/1999/xlink" x="0px" y="0px"
	 width="1440px" height="1440px" viewBox="0 0 1440 1440" enable-background="new 0 0 1440 1440" xml:space="preserve">
<g>
	<path fill="#583E87" d="M487.032,886.003c-21.33,0-29.995,19.33-31.327,32.995h59.989
		C515.694,906.666,510.362,886.003,487.032,886.003z"/>
	<path fill="#583E87" d="M294.395,830.345c-12.332,0-19.331,1.002-22.997,1.668v61.988h19.997c25.329,0,40.325-12.662,40.325-32.326
		C331.719,841.012,317.723,830.682,294.395,830.345z"/>
	<path fill="#583E87" d="M364.802,610.855c45.288-14.721,144.464-36.529,175.952-43.326l0.073,0.046
		c-0.764-0.542-1.531-1.078-2.296-1.626c-32.982-23.722-66.428-55.977-101.19-103.563c-10.729-14.686-19.985-30.558-27.965-47.097
		c-6.978,21.813-18.938,53.699-37.793,88.453c-34.574,63.724-71.18,133.549-71.18,133.549S310.57,628.478,364.802,610.855z"/>
	<path fill="#583E87" d="M227.186,668.477c-52.201,41.353-134.229,136.94-122.028,157.955
		c36.607-6.103,71.86-57.625,122.705-130.161c47.029-67.094,139.876-264.105,166.42-316.899h-0.001
		c-27.048-74.242-33.016-154.143-33.645-198.39C186.948,297.22,72.575,495.18,72.575,719.868c0,26.029,1.581,51.69,4.564,76.915
		C90.063,746.828,227.186,668.477,227.186,668.477z"/>
	<path fill="#583E87" d="M1288.592,886.003c-21.333,0-29.994,19.33-31.326,32.995h59.988
		C1317.254,906.666,1311.92,886.003,1288.592,886.003z"/>
	<path fill="#583E87" d="M1209.269,939.329c0-41.327,25.663-86.985,82.321-86.985c27.188,0,45.65,10.942,57.168,27.064
		c12.924-51.038,19.816-104.484,19.816-159.541c0-357.879-290.12-647.999-648.002-647.999c-99.774,0-194.271,22.574-278.695,62.856
		c22.808,26.188-1.148,70.729-1.148,70.729c3.324-25.586-1.43-44.364-15.383-62.575c-11.278,5.783-22.342,11.921-33.225,18.334
		c-5.422,41.7,5.057,100.434,24.048,160.365v-0.003c11.522-40.963,22.354-91.468,24.264-100.477c0.595-14.288,0.296-1.41,0.296-1.41
		s-0.101,0.492-0.296,1.41c-0.301,7.198-0.83,21.284-1.737,47.402c-1.318,37.903-6.355,66.708-11.182,86.3l0.076,0.22
		c8.248,22.538,17.504,44.821,27.375,66.013c29.639,63.625,78.631,108.124,131.663,139.818
		c67.057-10.832,240.179-31.812,225.784,43.22c0,0-11.191-46.508-192.114-24.948c27.365,13.474,54.944,24.005,80.753,32.404
		c87.451,28.478,94.911,14.239,109.823,4.069c12.878,31.185-56.948,48.812-136.265,17.626
		c-33.686-13.247-66.641-25.636-99.739-44.177c-1.029-0.581-2.061-1.173-3.09-1.761c-5.998,0.839-36.24,5.191-96.477,15.433
		c-67.794,11.525-181.682,50.165-181.682,50.165s-6.103,15.593-54.235,86.096c-48.132,70.503-87.451,96.943-98.299,99.657
		c-9.878,2.47-46.184,15.603-60.777-18.445c48.222,310.241,316.506,547.678,640.262,547.678
		c248.674,0,464.588-140.098,573.232-345.648C1240.028,1021.267,1209.269,989.547,1209.269,939.329z M338.718,1018.981
		c-3.665-6.333-8.998-24.661-15.664-52.324c-5.998-27.995-15.663-35.66-36.325-35.993h-15.332v88.317h-50.325v-221.63
		c16.332-2.669,40.661-4.667,67.656-4.667c33.327,0,56.655,5,72.654,17.666c13.33,10.663,20.662,26.326,20.662,46.989
		c0,28.663-20.328,48.327-39.658,55.326v0.999c15.664,6.333,24.328,21.329,29.995,41.993c6.999,25.331,13.998,54.658,18.33,63.323
		H338.718z M561.021,953.66H456.038c1.666,20.996,22.329,30.992,45.993,30.992c17.329,0,31.327-2.332,44.992-6.664l6.666,34.326
		c-16.665,6.667-36.994,9.998-58.99,9.998c-55.325,0-86.987-31.994-86.987-82.983c0-41.327,25.662-86.985,82.319-86.985
		c52.659,0,72.656,40.99,72.656,81.318C562.688,942.326,561.687,949.992,561.021,953.66z M636.348,1022.313
		c-21.33,0-40.325-4.664-52.657-11.329l8.998-36.327c9.331,5.666,28.662,12.332,43.659,12.332c15.331,0,21.663-5.334,21.663-13.664
		c0-8.336-4.999-12.333-23.997-18.666c-33.66-11.333-46.659-29.661-46.326-48.991c0-30.328,25.997-53.323,66.324-53.323
		c18.997,0,35.994,4.33,45.993,9.331l-9,34.993c-7.332-4-21.33-9.334-35.328-9.334c-12.331,0-19.33,5.002-19.33,13.332
		c0,7.666,6.333,11.666,26.329,18.665c30.995,10.664,43.994,26.331,44.327,50.325
		C707.004,999.984,683.007,1022.313,636.348,1022.313z M848.651,1018.981l-2.331-22.995h-1
		c-6.336,9.996-21.666,26.663-50.994,26.663c-32.993,0-57.324-20.665-57.324-70.989v-95.651h50.994v87.65
		c0,23.665,7.662,37.995,25.328,37.995c13.997,0,21.996-9.666,25.327-17.664c1.336-2.999,1.669-7,1.669-10.997v-96.984h50.991
		v110.648c0,21.331,0.666,38.66,1.332,52.324H848.651z M1178.268,1018.981h-49.326V930.33c0-23.664-7.665-37.328-23.994-37.328
		c-11.666,0-19.998,7.998-23.332,17.664c-1.333,3.666-1.999,8.999-1.999,13v95.315h-49.325v-91.318
		c0-20.665-7.332-34.661-23.329-34.661c-12.995,0-20.663,9.999-23.661,18.331c-1.666,3.997-1.999,8.665-1.999,12.665v94.983h-49.322
		V907.999c0-20.327-0.666-37.659-1.336-51.99H973.3l2.339,21.996h0.999c6.995-10.33,21.323-25.661,49.319-25.661
		c21,0,37.662,10.662,44.662,27.659h0.666c5.999-8.332,13.331-14.997,20.996-19.661c8.998-5.334,18.995-7.998,30.994-7.998
		c31.327,0,54.992,21.996,54.992,70.652V1018.981z"/>
	<path fill="#583E87" d="M1303.589,984.652c2.995,0,5.861-0.095,8.672-0.229c4.528-10.12,8.796-20.38,12.814-30.763h-67.478
		C1259.264,974.656,1279.924,984.652,1303.589,984.652z"/>
</g>
<path fill="#583E87" stroke="#000000" stroke-miterlimit="10" d="M178.571-586.638C79.949-586.638,0-506.688,0-408.066
	c0,98.623,79.949,178.572,178.571,178.572c98.623,0,178.572-79.949,178.572-178.572
	C357.145-506.688,277.194-586.638,178.571-586.638z M312.211-452.737c-5.605,4.254-11.407,8.508-11.407,8.508
	s1.354,60.712-33.836,97.062c-35.19,36.35-95.782,55.685-136.504,41.763C89.741-319.326,89.741-323,89.741-323
	s22.547,4.447,44.976-4.833c22.429-9.281,26.103-14.695,26.103-14.695s-15.469,1.547-29.389-11.601
	c-13.922-13.147-15.082-22.042-15.082-22.042s7.928,1.354,12.762,0.773c4.833-0.58,8.7-1.934,8.7-1.934s-17.401-1.354-29.39-18.368
	c-11.987-17.015-9.28-29.775-9.28-29.775s5.607,4.061,11.407,5.607c5.801,1.547,10.441,1.16,10.441,1.16
	s-21.075-11.795-21.655-37.123c-0.58-25.329,6.767-27.263,6.767-27.263s24.943,29.969,54.719,40.41
	c29.775,10.44,44.276,9.667,44.276,9.667s-6.96-39.829,29.97-55.685c36.93-15.854,52.59,11.795,52.59,11.795
	s11.795-2.127,17.789-5.414c5.996-3.287,12.761-6.381,12.761-6.381s-2.32,9.668-6.188,13.922c-3.864,4.254-14.5,12.567-14.5,12.567
	s9.088-0.58,16.048-3.094c6.961-2.514,11.063-4.446,11.063-4.446S317.818-456.99,312.211-452.737z"/>
<g>
	<path fill="#583E87" stroke="#000000" stroke-miterlimit="10" d="M-448.804,1353.254c-53.244,20.88-5.22,134.676,41.76,95.004
		S-414.358,1339.745-448.804,1353.254z"/>
	<path fill="#583E87" stroke="#000000" stroke-miterlimit="10" d="M-434.264,1600.521c21.828,2.105,44.607-3.467,56.452-17.59
		c27.144-32.362-32.364-69.946-32.364-69.946s-77.256-4.178-78.3,42.804c-0.031,1.381,0.019,2.729,0.132,4.051
		C-473.151,1576.612-454.813,1590.479-434.264,1600.521z"/>
	<path fill="#583E87" stroke="#000000" stroke-miterlimit="10" d="M-355.96,1261.428c-98.622,0-178.571,79.949-178.571,178.572
		c0,33.595,9.284,65.02,25.417,91.858c3.866-4.865,8.689-9.168,14.375-12.609c34.165-20.679,65.211-17.357,73.178-16.036
		c-3.163-0.992-9.174-4.616-11.064-17.877c-2.606-18.286,6.79-24.551,6.79-24.551s-60.552,18.792-77.256-41.76
		c-16.704-60.554,53.244-85.607,99.18-84.563s67.86-0.031,67.86-0.031l-22.968,17.779h-27.144c0,0,28.188,10.439,30.276,48.023
		c2.088,37.584-30.276,54.288-30.276,54.288s-11.484,5.22-11.484,13.57c0,8.354-2.088-6.265,0,8.354s56.376,24.012,52.2,65.771
		c-2.993,29.938-16.183,59.867-52.636,71.345c13.509,3.268,27.612,5.012,42.124,5.012c98.623,0,178.572-79.949,178.572-178.571
		C-177.388,1341.377-257.337,1261.428-355.96,1261.428z M-243.658,1483.23h-33.93v33.931H-301.6v-33.931h-33.93v-24.013h33.93
		v-33.931h24.012v33.931h33.93V1483.23L-243.658,1483.23z"/>
</g>
<circle stroke="#000000" stroke-miterlimit="10" cx="-1295.116" cy="550.718" r="178.572"/>
<circle stroke="#000000" stroke-miterlimit="10" cx="-800.884" cy="550.718" r="178.572"/>
<circle stroke="#000000" stroke-miterlimit="10" cx="-1295.116" cy="994.147" r="178.572"/>
<g>
	<rect x="-1321.002" y="510.578" fill="#FFFFFF" width="112" height="38"/>
	<path fill="#FFFFFF" d="M-1209.002,445.911v38c0,0-22-5.333-29.334,4c-7.332,9.334-4.666,22.667-4.666,22.667h34v35.2h-32v112.133
		h-49.334V548.578h-30.666v-36.667l30.469-1.333c0,0-7.252-42.209,17.697-57.417
		C-1246.586,437.161-1209.002,445.911-1209.002,445.911z"/>
</g>
<path fill="#FFFFFF" d="M-873.355,475.691c0,0,24.943,29.969,54.719,40.408c29.775,10.44,44.276,9.667,44.276,9.667
	s-6.96-39.827,29.97-55.685c36.93-15.854,52.59,11.795,52.59,11.795s11.795-2.127,17.789-5.414
	c5.994-3.287,12.761-6.381,12.761-6.381s-2.32,9.668-6.188,13.922c-3.866,4.254-14.501,12.567-14.501,12.567
	s9.088-0.58,16.048-3.095c6.961-2.515,11.065-4.445,11.065-4.445s-6.812,12.761-12.419,17.014
	c-5.606,4.254-11.407,8.508-11.407,8.508s1.354,60.712-33.836,97.063c-35.19,36.35-95.782,55.685-136.504,41.763
	c-40.723-13.921-40.723-17.595-40.723-17.595s22.547,4.447,44.976-4.833c22.429-9.281,26.103-14.695,26.103-14.695
	s-15.469,1.547-29.389-11.601c-13.922-13.147-15.082-22.042-15.082-22.042s7.928,1.354,12.762,0.771c4.833-0.58,8.7-1.934,8.7-1.934
	s-17.401-1.354-29.39-18.368c-11.987-17.015-9.28-29.775-9.28-29.775s5.607,4.063,11.407,5.607c5.801,1.547,10.441,1.16,10.441,1.16
	s-21.075-11.795-21.655-37.123S-873.355,475.691-873.355,475.691z"/>
<g>
	<path fill="#FFFFFF" d="M-1325.32,906.357c0,0,28.188,10.438,30.275,48.021c2.089,37.584-30.275,54.288-30.275,54.288
		s-11.484,5.22-11.484,13.572c0,8.352-2.088-6.267,0,8.352c2.088,14.617,56.377,24.013,52.2,65.771
		c-4.176,41.761-28.188,83.521-107.532,75.168c-79.344-8.354-81.432-74.123-41.76-98.138c39.672-24.012,75.168-15.658,75.168-15.658
		s-10.447,0.031-13.054-18.254c-2.605-18.285,6.79-24.552,6.79-24.552s-60.552,18.792-77.256-41.76s53.244-85.607,99.18-84.563
		c45.936,1.046,67.86-0.029,67.86-0.029l-22.968,17.777h-27.144V906.357z"/>
	<path d="M-1387.96,907.401c34.446-13.511,88.739,55.332,41.76,95.004C-1393.179,1042.077-1441.204,928.281-1387.96,907.401z"/>
	<path d="M-1349.332,1067.133c0,0-77.256-4.176-78.3,42.806c-1.044,46.979,83.52,59.508,110.663,27.145
		C-1289.824,1104.717-1349.332,1067.133-1349.332,1067.133z"/>
	<rect x="-1240.756" y="979.438" fill="#FFFFFF" width="24.012" height="91.871"/>
	<rect x="-1274.687" y="1013.367" fill="#FFFFFF" width="91.872" height="24.012"/>
</g>
</svg>
